<?xml version="1.0" encoding="UTF-8"?>
<svg width="28px" height="29px" viewBox="0 0 28 29" version="1.1" xmlns="http://www.w3.org/2000/svg" xmlns:xlink="http://www.w3.org/1999/xlink">
    <!-- Generator: sketchtool 42 (36781) - http://www.bohemiancoding.com/sketch -->
    <title>310C3C7C-11E9-4279-93DC-B7A607E10510</title>
    <desc>Created with sketchtool.</desc>
    <defs></defs>
    <g id="Page-1" stroke="none" stroke-width="1" fill="none" fill-rule="evenodd">
        <g id="Contact-list" transform="translate(-138.000000, -150.000000)" fill-rule="nonzero" fill="#002D61">
            <g id="gonb" transform="translate(122.000000, 145.000000)">
                <g id="add" transform="translate(15.000000, 5.000000)">
                    <path d="M15,28.7 C11.26,28.7 7.745,27.2076 5.101,24.496475 C0.779,20.06745 -0.247,13.350625 2.547,7.784875 C2.8,7.2816 3.402,7.083775 3.894,7.342075 C4.385,7.600375 4.579,8.21845 4.326,8.72275 C1.931,13.494125 2.81,19.250525 6.515,23.047125 C8.781,25.3708 11.794,26.65 15,26.65 C18.205,26.65 21.219,25.3708 23.485,23.047125 C25.751,20.72345 27,17.635125 27,14.35 C27,11.06385 25.752,7.975525 23.485,5.652875 C21.218,3.330225 18.206,2.05 15,2.05 C11.794,2.05 8.781,3.330225 6.515,5.652875 C6.124,6.05365 5.492,6.05365 5.101,5.652875 C4.71,5.2521 4.71,4.6043 5.101,4.203525 C7.745,1.493425 11.26,0 15,0 C18.74,0 22.256,1.493425 24.899,4.203525 C27.544,6.913625 29,10.5165 29,14.35 C29,18.182475 27.544,21.786375 24.899,24.496475 C22.256,27.2076 18.74,28.7 15,28.7 Z" id="Shape"></path>
                    <path d="M15,20.5 C14.448,20.5 14,20.041825 14,19.475 L14,9.225 C14,8.6592 14.448,8.2 15,8.2 C15.552,8.2 16,8.6592 16,9.225 L16,19.475 C16,20.041825 15.552,20.5 15,20.5 Z" id="Shape"></path>
                    <path d="M20,15.375 L10,15.375 C9.448,15.375 9,14.9158 9,14.35 C9,13.7842 9.448,13.325 10,13.325 L20,13.325 C20.553,13.325 21,13.7842 21,14.35 C21,14.9158 20.553,15.375 20,15.375 Z" id="Shape"></path>
                </g>
            </g>
        </g>
    </g>
</svg>