<?xml version="1.0" encoding="UTF-8"?>
<svg width="19px" height="21px" viewBox="0 0 19 21" version="1.1" xmlns="http://www.w3.org/2000/svg" xmlns:xlink="http://www.w3.org/1999/xlink">
    <!-- Generator: sketchtool 42 (36781) - http://www.bohemiancoding.com/sketch -->
    <title>4305870B-4E73-41E1-A383-A26C6B1C4B13</title>
    <desc>Created with sketchtool.</desc>
    <defs></defs>
    <g id="Symbols" stroke="none" stroke-width="1" fill="none" fill-rule="evenodd">
        <g id="delete" fill-rule="nonzero" fill="#002D61">
            <path d="M8.01742337,16.610349 C8.01742337,17.0149874 7.69989256,17.3420641 7.30864925,17.3420641 C6.91740593,17.3420641 6.59987513,17.0149874 6.59987513,16.610349 L6.59987513,9.29319781 C6.59987513,8.88929106 6.91740593,8.56148269 7.30864925,8.56148269 C7.69989256,8.56148269 8.01742337,8.88929106 8.01742337,9.29319781 L8.01742337,16.610349 Z M12.2700681,16.610349 C12.2700681,17.0149874 11.9532461,17.3420641 11.561294,17.3420641 C11.1693419,17.3420641 10.8525199,17.0149874 10.8525199,16.610349 L10.8525199,9.29319781 C10.8525199,8.88929106 11.1693419,8.56148269 11.561294,8.56148269 C11.9532461,8.56148269 12.2700681,8.88929106 12.2700681,9.29319781 L12.2700681,16.610349 Z M17.9402611,3.43947686 C18.3322131,3.43947686 18.6490352,3.76728523 18.6490352,4.17119198 C18.6490352,4.57509872 18.3322131,4.9029071 17.9402611,4.9029071 L16.5227128,4.9029071 L16.5227128,20.2689246 C16.5227128,20.673563 16.2058908,21.0006397 15.8139387,21.0006397 L3.05600452,21.0006397 C2.66476121,21.0006397 2.3472304,20.673563 2.3472304,20.2689246 L2.3472304,7.09805245 C2.3472304,6.69414571 2.66476121,6.36633733 3.05600452,6.36633733 C3.44724784,6.36633733 3.76477865,6.69414571 3.76477865,7.09805245 L3.76477865,19.5372095 L15.1051646,19.5372095 L15.1051646,4.9029071 L0.929682163,4.9029071 C0.538438848,4.9029071 0.220908042,4.57509872 0.220908042,4.17119198 C0.220908042,3.76728523 0.538438848,3.43947686 0.929682163,3.43947686 L5.4530786,3.43947686 L6.67429641,0.917254847 C6.79478801,0.669203422 7.04002386,0.512616386 7.30864925,0.512616386 L11.561294,0.512616386 C11.8299194,0.512616386 12.0751552,0.669203422 12.194938,0.917254847 L13.4168646,3.43947686 L17.9402611,3.43947686 Z" id="Combined-Shape"></path>
        </g>
    </g>
</svg>