<?xml version="1.0" encoding="UTF-8"?>
<svg width="17px" height="17px" viewBox="0 0 17 17" version="1.1" xmlns="http://www.w3.org/2000/svg" xmlns:xlink="http://www.w3.org/1999/xlink">
    <!-- Generator: sketchtool 42 (36781) - http://www.bohemiancoding.com/sketch -->
    <title>F7D0BD28-893D-41B4-AB5E-CB01F119A2EB</title>
    <desc>Created with sketchtool.</desc>
    <defs></defs>
    <g id="Page-1" stroke="none" stroke-width="1" fill="none" fill-rule="evenodd">
        <g id="Contact-list-with-add-popup" transform="translate(-679.000000, -189.000000)" fill="#002D61">
            <g id="csuk" transform="translate(679.000000, 189.000000)">
                <g id="csuk-copy">
                    <path d="M5.86311111,6.77859259 C5.98525926,6.90137037 6.14581481,6.96244444 6.30637037,6.96244444 C6.46692593,6.96244444 6.62748148,6.90137037 6.74962963,6.77859259 C6.99455556,6.53366667 6.99455556,6.13637037 6.74962963,5.89144444 L1.73462963,0.871407407 C1.4897037,0.626481481 1.09303704,0.626481481 0.848111111,0.871407407 C0.603185185,1.11633333 0.603185185,1.51362963 0.848111111,1.75855556 L5.86311111,6.77859259 Z" id="Shape" fill-rule="nonzero"></path>
                    <path d="M9.7007037,8.84503704 L16.7808889,1.75855556 C17.0258148,1.51362963 17.0258148,1.11633333 16.7808889,0.871407407 C16.535963,0.626481481 16.1392963,0.518185185 15.8943704,0.763740741 L8.37155556,8.18518519 L8.18518519,8.18518519 L8.18518519,8.40240741 L0.755555556,15.9315185 C0.51062963,16.1764444 0.557222222,16.5737407 0.801518519,16.8186667 C0.923666667,16.9414444 1.10751852,17.0025185 1.26807407,17.0025185 C1.42862963,17.0025185 1.60051852,16.9414444 1.72266667,16.8186667 L8.80851852,9.73281481 L15.8912222,16.8192963 C16.0133704,16.9420741 16.1758148,17.0031481 16.3357407,17.0031481 C16.4956667,17.0031481 16.6574815,16.9420741 16.7796296,16.8192963 C17.0245556,16.5743704 17.0251852,16.1770741 16.7802593,15.9321481 L9.7007037,8.84503704 Z" id="Shape" fill-rule="nonzero"></path>
                </g>
            </g>
        </g>
    </g>
</svg>