<?xml version="1.0" encoding="UTF-8"?>
<svg width="20px" height="17px" viewBox="0 0 20 17" version="1.1" xmlns="http://www.w3.org/2000/svg" xmlns:xlink="http://www.w3.org/1999/xlink">
    <!-- Generator: sketchtool 42 (36781) - http://www.bohemiancoding.com/sketch -->
    <title>2E939A35-A605-4FE1-8F0A-5421E9A28BF8</title>
    <desc>Created with sketchtool.</desc>
    <defs></defs>
    <g id="Symbols" stroke="none" stroke-width="1" fill="none" fill-rule="evenodd">
        <g id="send" fill-rule="nonzero" fill="#002D61">
            <path d="M19.2912259,16.0977326 L0.863098745,16.0977326 C0.47185543,16.0977326 0.154324624,15.7706559 0.154324624,15.3660175 L0.154324624,3.65857559 C0.154324624,3.25466885 0.47185543,2.92686047 0.863098745,2.92686047 C1.25434206,2.92686047 1.57187287,3.25466885 1.57187287,3.65857559 L1.57187287,14.6343024 L18.5824518,14.6343024 L18.5824518,1.46343024 L0.863098745,1.46343024 C0.47185543,1.46343024 0.154324624,1.13562186 0.154324624,0.731715118 C0.154324624,0.327808373 0.47185543,0 0.863098745,0 L19.2912259,0 C19.683178,0 20,0.327808373 20,0.731715118 L20,15.3660175 C20,15.7706559 19.683178,16.0977326 19.2912259,16.0977326 Z M10.0771623,10.2440117 C9.89571614,10.2440117 9.71426996,10.1723036 9.57605901,10.0296191 L3.90586604,4.17589818 C3.62873536,3.88979757 3.62873536,3.42735361 3.90586604,3.141253 C4.18299673,2.85515239 4.63094197,2.85515239 4.90807265,3.141253 L10.0771623,8.47765136 L15.246252,3.141253 C15.5233827,2.85515239 15.9713279,2.85515239 16.2484586,3.141253 C16.5255893,3.42735361 16.5255893,3.88979757 16.2484586,4.17589818 L10.5782656,10.0296191 C10.4400547,10.1723036 10.2586085,10.2440117 10.0771623,10.2440117 Z M15.7480641,13.1708721 C15.5666179,13.1708721 15.3851717,13.099164 15.2469607,12.9564796 L13.1192208,10.7598708 C12.8420902,10.4737702 12.8420902,10.0113262 13.1192208,9.72522564 C13.3963515,9.43912503 13.8442968,9.43912503 14.1214274,9.72522564 L16.2491674,11.9218344 C16.526298,12.207935 16.526298,12.670379 16.2491674,12.9564796 C16.1109564,13.099164 15.9295102,13.1708721 15.7480641,13.1708721 Z M4.40767812,13.1708721 C4.22623195,13.1708721 4.04478577,13.099164 3.90657482,12.9564796 C3.62944414,12.670379 3.62944414,12.207935 3.90657482,11.9218344 L6.03218841,9.72742078 C6.30931909,9.44132017 6.75726433,9.44132017 7.03439501,9.72742078 C7.31152569,10.0135214 7.31152569,10.4759653 7.03439501,10.762066 L4.90878142,12.9564796 C4.77057047,13.099164 4.5891243,13.1708721 4.40767812,13.1708721 Z" id="Combined-Shape"></path>
        </g>
    </g>
</svg>