<?xml version="1.0" encoding="UTF-8"?>
<svg width="21px" height="21px" viewBox="0 0 21 21" version="1.1" xmlns="http://www.w3.org/2000/svg" xmlns:xlink="http://www.w3.org/1999/xlink">
    <!-- Generator: sketchtool 42 (36781) - http://www.bohemiancoding.com/sketch -->
    <title>1454C4BA-69A7-4181-8BB0-D9C21F0C0731</title>
    <desc>Created with sketchtool.</desc>
    <defs></defs>
    <g id="Symbols" stroke="none" stroke-width="1" fill="none" fill-rule="evenodd">
        <g id="edit" fill-rule="nonzero" fill="#002D61">
            <path d="M18.9955868,1.85193632 C18.3123285,1.14656295 17.4462066,0.699485011 16.4914878,0.558995708 C15.1015818,0.355578905 13.7308126,0.827535157 12.7392376,1.85193632 C12.4621069,2.13803693 12.4621069,2.6012126 12.7392376,2.88731321 C12.8016097,2.93633813 12.8065712,2.95609444 12.8214554,2.97146045 L14.86556,5.08172685 L4.30766069,15.9813553 L2.68244163,14.3035325 L11.6392202,5.05684854 C11.9163509,4.77074793 11.9163509,4.30830397 11.6392202,4.02220336 C11.3620895,3.73610275 10.9141443,3.73610275 10.6370136,4.02220336 L1.18054927,13.7847465 C1.17984049,13.7854782 0.652512547,14.3291425 0.652512547,14.3291425 C0.585887779,14.3979237 0.534147269,14.4798758 0.498708563,14.5684134 C0.463978631,14.6576826 0.445550504,14.7520739 0.445550504,14.8464651 L0.445550504,20.2706693 C0.445550504,20.6753077 0.76308131,21.0023844 1.15432462,21.0023844 L6.40917595,21.0023844 C6.5970011,21.0023844 6.7777385,20.9255543 6.91027926,20.7879919 L18.9955868,8.31151739 C20.7200342,6.53052279 20.7200342,3.63293092 18.9955868,1.85193632 Z M16.2923223,2.00852336 C16.9401418,2.10364632 17.5284244,2.4073081 17.9926714,2.8865815 C18.9913341,3.91829982 19.1309626,5.49660933 18.4278587,6.6907684 L16.3681611,4.56367255 L14.3013758,2.42999127 C14.8903671,2.05754827 15.587092,1.90535153 16.2923223,2.00852336 Z M1.86309874,19.5389542 L1.86309874,15.5276919 L3.80513984,17.5325913 C3.80584861,17.5340547 5.74859847,19.5389542 5.74859847,19.5389542 L1.86309874,19.5389542 Z M5.30986729,17.0160004 L15.8670578,6.11637203 L17.4922769,7.7941948 L6.93437758,18.6938232 L5.30986729,17.0160004 Z" id="Shape"></path>
        </g>
    </g>
</svg>